<svg width="38" height="38" viewBox="0 0 24 24" fill="none" xmlns="http://www.w3.org/2000/svg">
<path d="M3.55498 14.257C2.83698 10.904 2.47698 9.227 3.37798 8.114C4.27798 7 5.99298 7 9.42198 7H14.578C18.008 7 19.721 7 20.622 8.114C21.522 9.228 21.163 10.904 20.445 14.257L20.016 16.257C19.529 18.53 19.286 19.666 18.461 20.333C17.636 21 16.474 21 14.15 21H9.84998C7.52598 21 6.36398 21 5.53998 20.333C4.71398 19.666 4.46998 18.53 3.98398 16.257L3.55498 14.257Z" stroke="currentColor" stroke-width="1.2"/>
<path d="M8 12H16M10 15H14M18 9L15 3M6 9L9 3" stroke="currentColor" stroke-width="1.2" stroke-linecap="round" stroke-linejoin="round"/>
</svg>
